<svg xmlns="http://www.w3.org/2000/svg" viewBox="0 0 450.69 449.7">
  <defs>
    <style>
      .a {
        fill: #231f20;
        fill-rule: evenodd;
      }
    </style>
  </defs>
  <g>
    <path class="a" d="M277.08,224.85a52.22,52.22,0,0,1-15.16,36.84,51,51,0,0,1-36.24,15.25H225c-28.1,0-51.4-23.31-51.4-52.09a51.76,51.76,0,0,1,51.4-51.4h.68C253.78,173.45,277.08,196.75,277.08,224.85Z"/>
    <path class="a" d="M290.79,106.29H159.89a53.51,53.51,0,0,0-53.44,53.46V290a53.51,53.51,0,0,0,53.44,53.45h130.9A53.52,53.52,0,0,0,344.24,290V159.75A53.52,53.52,0,0,0,290.79,106.29ZM280.68,280.11a78.07,78.07,0,0,1-55,22.87H225c-42.49,0-77.44-35-77.44-78.13a78.29,78.29,0,0,1,22.79-55A76.81,76.81,0,0,1,225,146.73h.68c42.49,0,78.13,35.63,78.13,78.12A77.77,77.77,0,0,1,280.68,280.11ZM314,159.66a16.45,16.45,0,1,1-11.56-28,16.68,16.68,0,0,1,16.44,16.45A16.42,16.42,0,0,1,314,159.66Z"/>
    <path class="a" d="M225.34,0C101.16,0,.49,100.67.49,224.85S101.16,449.7,225.34,449.7,450.2,349,450.2,224.85,349.52,0,225.34,0ZM368.91,290.64c0,42.49-35,77.44-77.44,77.44H159.21c-42.49,0-77.44-34.95-77.44-77.44V159.06c0-42.49,35-77.44,77.44-77.44H291.47c42.49,0,77.44,34.95,77.44,77.44Z"/>
  </g>
</svg>
