<svg xmlns="http://www.w3.org/2000/svg" viewBox="0 0 450.69 449.7">
  <defs>
    <style>
      .a {
        fill: #231f20;
        fill-rule: evenodd;
      }
    </style>
  </defs>
  <path class="a" d="M225.34,0C101.16,0,.49,100.67.49,224.85S101.16,449.7,225.34,449.7,450.19,349,450.19,224.85,349.53,0,225.34,0ZM341.57,169.38c9.6,133.68-134.42,214.92-251.11,148.45,0,0,57.61,2.95,82-25.11,0,0-35.43,2.95-53.16-39.87.5.18,13.53,5,26.58-1.49,0,0-41.37-6.65-45.05-56.13,0,0,13.28,10.34,28.05,6.64,0,0-45.79-27.32-19.94-76.81,0,0,48.75,62,118.92,59.83-11.08-58.35,59.07-93.06,100.44-51,0,0,18.45-5.17,34.7-15.5a63.69,63.69,0,0,1-25.84,32.48s22.15-2.95,31.74-8.85C368.59,142.67,359,162.11,341.57,169.38Z"/>
</svg>
